Coordinates
version=1
nRows=43
nColumns=12
inDegrees=yes

Units are S.I. units (second, meters, Newtons, ...)
Angles are in degrees

endheader
time	SC_y	SC_z	SC_x	AC_y	AC_z	AC_x	GH_y	GH_z	GH_yy	EL_x	PS_y
       0.0              -43.28         -2.937          63.65          66.65         -10.87         -19.78          60.59         -18.43         -137.6          74.34          159.6
  0.003717              -43.28         -2.934          63.65          66.64         -10.87         -19.77          60.57         -18.41         -137.6          74.34          159.6
  0.007435              -43.28          -2.93          63.64          66.64         -10.87         -19.77          60.56         -18.39         -137.6          74.34          159.6
   0.01115              -43.28         -2.926          63.63          66.63         -10.87         -19.76          60.54         -18.38         -137.6          74.34          159.6
   0.01487              -43.28         -2.922          63.62          66.63         -10.87         -19.75          60.53         -18.36         -137.6          74.34          159.6
   0.01859              -43.29         -2.917          63.61          66.62         -10.87         -19.75          60.51         -18.34         -137.6          74.34          159.6
    0.0223              -43.29         -2.912           63.6          66.62         -10.87         -19.74          60.49         -18.32         -137.6          74.34          159.6
   0.02602              -43.29         -2.907          63.59          66.61         -10.87         -19.73          60.47         -18.29         -137.5          74.34          159.5
   0.02974              -43.29         -2.902          63.58          66.61         -10.87         -19.73          60.45         -18.27         -137.5          74.34          159.5
   0.03346              -43.29         -2.896          63.57           66.6         -10.87         -19.72          60.43         -18.24         -137.5          74.34          159.5
   0.03717              -43.29         -2.889          63.56          66.59         -10.87         -19.71           60.4         -18.21         -137.5          74.34          159.5
   0.04089              -43.29         -2.882          63.55          66.59         -10.86          -19.7          60.38         -18.18         -137.5          74.34          159.5
   0.04461              -43.29         -2.875          63.53          66.58         -10.86         -19.69          60.35         -18.15         -137.5          74.34          159.4
   0.04833              -43.29         -2.867          63.52          66.57         -10.86         -19.68          60.32         -18.12         -137.5          74.34          159.4
   0.05204              -43.29         -2.858           63.5          66.56         -10.86         -19.67          60.28         -18.08         -137.4          74.34          159.4
   0.05576              -43.29         -2.849          63.48          66.55         -10.86         -19.65          60.25         -18.04         -137.4          74.33          159.4
   0.05948              -43.29         -2.839          63.46          66.54         -10.86         -19.64          60.21         -17.99         -137.4          74.33          159.3
    0.0632              -43.29         -2.828          63.44          66.53         -10.86         -19.62          60.17         -17.94         -137.4          74.33          159.3
   0.06691               -43.3         -2.815          63.42          66.51         -10.86         -19.61          60.12         -17.89         -137.4          74.33          159.3
   0.07063               -43.3         -2.802          63.39           66.5         -10.85         -19.59          60.07         -17.83         -137.3          74.33          159.2
   0.07435               -43.3         -2.788          63.36          66.48         -10.85         -19.57          60.01         -17.77         -137.3          74.33          159.2
   0.07807               -43.3         -2.771          63.33          66.46         -10.85         -19.55          59.95          -17.7         -137.3          74.33          159.1
   0.08178               -43.3         -2.754           63.3          66.44         -10.85         -19.52          59.88         -17.62         -137.2          74.32          159.1
    0.0855               -43.3         -2.734          63.26          66.42         -10.84         -19.49          59.81         -17.53         -137.2          74.32          159.0
   0.08922              -43.31         -2.712          63.22           66.4         -10.84         -19.46          59.72         -17.43         -137.2          74.32          158.9
   0.09294              -43.31         -2.688          63.17          66.37         -10.84         -19.43          59.63         -17.33         -137.1          74.32          158.9
   0.09665              -43.31          -2.66          63.12          66.34         -10.83         -19.39          59.52         -17.21         -137.0          74.31          158.8
    0.1004              -43.32          -2.63          63.06          66.31         -10.83         -19.35          59.41         -17.07         -137.0          74.31          158.7
    0.1041              -43.32         -2.595          62.99          66.27         -10.83          -19.3          59.27         -16.92         -136.9          74.31          158.6
    0.1078              -43.32         -2.556          62.91          66.22         -10.82         -19.25          59.12         -16.74         -136.8           74.3          158.4
    0.1115              -43.33         -2.511          62.82          66.17         -10.81         -19.19          58.95         -16.55         -136.7           74.3          158.3
    0.1152              -43.33         -2.459          62.72          66.12         -10.81         -19.11          58.75         -16.32         -136.6          74.29          158.1
     0.119              -43.34         -2.399          62.61          66.05          -10.8         -19.03          58.52         -16.05         -136.5          74.29          157.9
    0.1227              -43.35          -2.33          62.47          65.97         -10.79         -18.94          58.25         -15.75         -136.4          74.28          157.7
    0.1264              -43.35         -2.249          62.32          65.88         -10.78         -18.82          57.94         -15.39         -136.2          74.27          157.5
    0.1301              -43.36         -2.153          62.13          65.78         -10.77         -18.69          57.58         -14.97         -136.0          74.26          157.2
    0.1338              -43.38          -2.04          61.91          65.65         -10.75         -18.53          57.14         -14.47         -135.8          74.25          156.8
    0.1375              -43.39         -1.904          61.65           65.5         -10.73         -18.34          56.62         -13.87         -135.5          74.23          156.4
    0.1413              -43.41         -1.739          61.33          65.32         -10.71         -18.12          55.98         -13.14         -135.2          74.21          155.9
     0.145              -43.43         -1.538          60.93          65.09         -10.68         -17.84          55.21         -12.26         -134.8          74.19          155.2
    0.1487              -43.45         -1.289          60.45          64.82         -10.65         -17.49          54.26         -11.16         -134.3          74.17          154.5
    0.1524              -43.49        -0.9795          59.85          64.47         -10.61         -17.06          53.07         -9.796         -133.7          74.13          153.5
    0.1561              -43.53        -0.5894          59.09          64.04         -10.56         -16.52          51.57         -8.076         -132.9          74.09          152.3
